# xmcd
#
# Track frame offsets:
#	150
#	14420
#	27797
#	42918
#	56644
#	72282
#	86431
#	99891
#	112681
#	127716
#
# Disc length: 1855 seconds
#
# Revision: 1
# Processed by: cddbd v1.5.1PL0 Copyright (c) Steve Scherf et al.
# Submitted via: audiograbber 1.81.02
#
DISCID=6c073d0a
DTITLE=Legendary Blues - Blues Sisters
DYEAR=2002
DGENRE=Blues
TTITLE0=Ma Rainey - Jelly Bean Blues
TTITLE1=Lil Green - Why Don't You Do Right
TTITLE2=Ethel Waters - Shake That Thing
TTITLE3=Dinah Washington and Lionel Hampton - Salty Papa Blues
TTITLE4=Mamie Smith - Crazy Blues
TTITLE5=Ida Cox - Last Mile Blues
TTITLE6=Lucille Bogan - Skin Game Blues
TTITLE7=Victoria Spivey - Toothache Blues
TTITLE8=Rosa Henderson - Can't Be Bothered With No Sheiks
TTITLE9=Memphis Minnie - In My Girlish Days
EXTD=
EXTT0=
EXTT1=
EXTT2=
EXTT3=
EXTT4=
EXTT5=
EXTT6=
EXTT7=
EXTT8=
EXTT9=
PLAYORDER=
